HIERARCHY
ROOT SpineBase
{
  OFFSET 0.000000 0.000000 0.000000
  CHANNELS 6 Xposition Yposition Zposition Zrotation Xrotation Yrotation
  JOINT SpineMid
  {
    OFFSET 0.000000 31.006037 0.000000
    CHANNELS 3 Zrotation Xrotation Yrotation
    JOINT SpineShoulder
    {
      OFFSET -0.010744 23.045168 -0.910837
      CHANNELS 3 Zrotation Xrotation Yrotation
      JOINT Neck
      {
        OFFSET -0.010047 7.642557 -0.667920
        CHANNELS 3 Zrotation Xrotation Yrotation
        JOINT Head
        {
          OFFSET -2.024104 12.253816 1.199985
          CHANNELS 3 Zrotation Xrotation Yrotation
          End Site
          {
            OFFSET 0 0 0
          }
        }
      }
      JOINT ShoulderLeft
      {
        OFFSET -17.283508 -4.244736 6.991904
        CHANNELS 3 Zrotation Xrotation Yrotation
        JOINT ElbowLeft
        {
          OFFSET -2.151121 -28.516458 -1.244898
          CHANNELS 3 Zrotation Xrotation Yrotation
          JOINT WristLeft
          {
            OFFSET -0.189568 -20.910023 -8.155547
            CHANNELS 3 Zrotation Xrotation Yrotation
            JOINT HandLeft
            {
              OFFSET 1.254731 -1.640412 -0.943214
              CHANNELS 3 Zrotation Xrotation Yrotation
              JOINT HandTipLeft
              {
                OFFSET 0.188769 -5.679255 -2.002633
                CHANNELS 3 Zrotation Xrotation Yrotation
                End Site
                {
                  OFFSET 0 0 0
                }
              }
              JOINT ThumbLeft
              {
                OFFSET -3.689253 -0.434831 -2.195935
                CHANNELS 3 Zrotation Xrotation Yrotation
                End Site
                {
                  OFFSET 0 0 0
                }
              }
            }
          }
        }
      }
      JOINT ShoulderRight
      {
        OFFSET 14.720702 -2.003236 -7.229023
        CHANNELS 3 Zrotation Xrotation Yrotation
        JOINT ElbowRight
        {
          OFFSET 9.581259 -21.527275 -1.638408
          CHANNELS 3 Zrotation Xrotation Yrotation
          JOINT WristRight
          {
            OFFSET -9.209261 -19.082225 -7.785767
            CHANNELS 3 Zrotation Xrotation Yrotation
            JOINT HandRight
            {
              OFFSET -6.536653 -3.298527 -0.452083
              CHANNELS 3 Zrotation Xrotation Yrotation
              JOINT HandTipRight
              {
                OFFSET -4.466421 -3.995404 -4.911347
                CHANNELS 3 Zrotation Xrotation Yrotation
                End Site
                {
                  OFFSET 0 0 0
                }
              }
              JOINT ThumbRight
              {
                OFFSET 2.539686 -4.711212 1.125984
                CHANNELS 3 Zrotation Xrotation Yrotation
                End Site
                {
                  OFFSET 0 0 0
                }
              }
            }
          }
        }
      }
    }
  }
  JOINT HipLeft
  {
    OFFSET -6.593568 0.792958 -1.149342
    CHANNELS 3 Zrotation Xrotation Yrotation
    JOINT KneeLeft
    {
      OFFSET -4.281058 -28.020229 -2.337880
      CHANNELS 3 Zrotation Xrotation Yrotation
      JOINT AnkleLeft
      {
        OFFSET -1.496540 -30.885116 0.963449
        CHANNELS 3 Zrotation Xrotation Yrotation
        JOINT FootLeft
        {
          OFFSET -4.205974 -2.702801 -13.162535
          CHANNELS 3 Zrotation Xrotation Yrotation
          End Site
          {
            OFFSET 0 0 0
          }
        }
      }
    }
  }
  JOINT HipRight
  {
    OFFSET 5.684538 1.411630 -6.075636
    CHANNELS 3 Zrotation Xrotation Yrotation
    JOINT KneeRight
    {
      OFFSET 8.966923 -24.688911 -2.876025
      CHANNELS 3 Zrotation Xrotation Yrotation
      JOINT AnkleRight
      {
        OFFSET 3.206391 -32.473989 11.698803
        CHANNELS 3 Zrotation Xrotation Yrotation
        JOINT FootRight
        {
          OFFSET -4.495531 -2.756895 -13.149755
          CHANNELS 3 Zrotation Xrotation Yrotation
          End Site
          {
            OFFSET 0 0 0
          }
        }
      }
    }
  }
}
MOTION
Frames: 6
Frame Time: 0.033333
29.293436 57.056844 325.354352 16.494252 -0.930888 46.466524 1.892440 0.027326 -45.835592 -0.262100 1.325251 0.631858 18.269938 15.312542 -6.606262 0.000000 0.000000 0.000000 -28.844589 -44.037611 -2.616932 154.338732 56.061614 -145.823144 -16.391126 -26.173714 27.005109 75.939788 33.748560 -48.605393 0.000000 0.000000 0.000000 0.000000 0.000000 0.000000 -83.530508 25.785323 41.967479 -10.854154 -26.620746 -24.808822 29.998889 2.151801 -27.092478 -16.194325 2.353622 34.376120 0.000000 0.000000 0.000000 0.000000 0.000000 0.000000 -25.296414 21.575468 -39.114550 34.570714 -1.344337 -1.515480 -14.037594 -12.915128 15.117101 0.000000 0.000000 0.000000 5.768897 13.641378 -45.658010 29.306069 -8.121381 17.840172 -41.727841 -3.825404 13.346432 0.000000 0.000000 0.000000
29.045092 58.000396 325.043230 16.635424 -0.001980 46.795588 1.767875 0.024388 -46.275665 -0.427202 1.293297 0.623487 18.595418 15.283092 -6.380719 0.000000 0.000000 0.000000 -27.422349 -38.914635 -2.288730 167.306456 67.762395 -160.051436 -17.544317 -19.914594 31.288955 72.806014 17.828936 -32.542527 0.000000 0.000000 0.000000 0.000000 0.000000 0.000000 -74.079444 27.627708 37.342310 -18.353296 -24.671549 -24.521422 31.059015 2.757519 -27.479024 -16.855726 3.126207 33.300137 0.000000 0.000000 0.000000 0.000000 0.000000 0.000000 -24.209363 19.293862 -40.507692 31.587858 -0.864334 -1.563000 -13.664559 -12.631338 16.358604 0.000000 0.000000 0.000000 4.389795 14.586937 -45.631405 31.319733 -8.234495 18.179586 -41.210814 -7.030742 12.369216 0.000000 0.000000 0.000000
28.820157 59.216530 324.815071 16.279949 0.864255 52.919103 1.330656 -0.011958 -52.505834 -0.406497 1.160719 0.615716 18.797420 15.188198 -6.027528 0.000000 0.000000 0.000000 -24.686476 -29.380642 -1.742970 -145.868962 80.505910 150.113481 -26.464198 -16.202344 34.319228 63.692161 0.491846 -24.066968 0.000000 0.000000 0.000000 0.000000 0.000000 0.000000 -59.984640 29.689374 31.452857 -26.572249 -24.127509 -24.055313 29.941924 4.108568 -26.930509 -11.025015 2.576497 28.963612 0.000000 0.000000 0.000000 0.000000 0.000000 0.000000 -19.910773 19.847499 -48.031912 28.233137 -1.709843 -0.795954 -13.395989 -11.495231 18.729351 0.000000 0.000000 0.000000 3.661631 13.110852 -51.838770 31.487202 -8.235887 17.607272 -39.045608 -8.696029 12.629884 0.000000 0.000000 0.000000
28.528560 60.542735 324.783234 15.346363 1.405004 56.548849 0.815069 0.107046 -56.208294 -0.374993 0.911085 0.598168 17.648476 14.345988 -5.269611 0.000000 0.000000 0.000000 -21.087376 -16.936162 -1.375794 -62.696469 72.844450 61.804450 -35.482506 -18.664880 31.837564 46.621937 -18.955083 -30.427887 0.000000 0.000000 0.000000 0.000000 0.000000 0.000000 -47.834780 28.272773 24.856518 -27.904509 -23.950810 -20.101242 27.526285 5.912310 -26.579733 -7.117641 -0.251542 26.988254 0.000000 0.000000 0.000000 0.000000 0.000000 0.000000 -16.287728 18.618197 -53.028503 24.367777 -2.301952 -0.255672 -12.988774 -9.829751 21.739035 0.000000 0.000000 0.000000 3.801816 11.499958 -55.513644 30.845770 -8.742175 17.187175 -37.186976 -9.673421 12.770607 0.000000 0.000000 0.000000
28.824046 62.047012 324.793745 14.598196 1.663741 57.893867 0.530117 0.032369 -57.571704 -0.423002 0.759477 0.577758 14.322904 12.617925 -4.246188 0.000000 0.000000 0.000000 -18.974888 -2.157283 -1.609988 -47.055105 55.954364 39.752878 -30.897548 -24.469392 24.710775 25.368867 -24.304375 -41.126753 0.000000 0.000000 0.000000 0.000000 0.000000 0.000000 -37.574375 26.068609 19.271461 -27.168019 -24.258523 -16.139694 24.217965 6.618795 -24.201440 -3.173254 -1.212705 22.412402 0.000000 0.000000 0.000000 0.000000 0.000000 0.000000 -13.924821 17.236991 -55.324175 20.766539 -2.874556 0.135468 -12.470575 -8.042335 24.856963 0.000000 0.000000 0.000000 2.506197 10.955286 -56.824054 31.026642 -9.470702 16.652641 -35.186014 -9.258541 12.984349 0.000000 0.000000 0.000000
29.584834 63.473858 325.003778 13.589446 1.663628 56.476515 0.106998 0.236724 -56.167996 -0.146385 0.477189 0.579184 12.173881 12.192769 -3.646745 0.000000 0.000000 0.000000 -15.868530 7.346022 -1.886164 -44.096850 44.630375 30.684219 -22.650712 -25.334779 24.019259 24.955444 -14.915257 -37.403503 0.000000 0.000000 0.000000 0.000000 0.000000 0.000000 -27.056312 21.989319 13.355088 -24.215706 -23.993730 -10.524412 20.766589 8.098936 -22.127408 -0.796728 -3.881843 19.287815 0.000000 0.000000 0.000000 0.000000 0.000000 0.000000 -12.617747 15.922036 -54.513177 18.273087 -3.553068 0.419339 -12.325338 -5.945028 27.468661 0.000000 0.000000 0.000000 2.011520 11.276790 -55.135545 29.186584 -12.270481 15.334277 -31.320572 -7.614705 13.111765 0.000000 0.000000 0.000000
